<svg viewBox="0 0 512 512" xmlns="http://www.w3.org/2000/svg">
  <rect width="512" height="512" rx="80" fill="#0f0f0f"/>
  <!-- grid lines -->
  <line x1="0" y1="170" x2="512" y2="170" stroke="#00ff88" stroke-width="1" opacity="0.18"/>
  <line x1="0" y1="256" x2="512" y2="256" stroke="#00ff88" stroke-width="1" opacity="0.18"/>
  <line x1="0" y1="342" x2="512" y2="342" stroke="#00ff88" stroke-width="1" opacity="0.18"/>
  <line x1="170" y1="0" x2="170" y2="512" stroke="#00ff88" stroke-width="1" opacity="0.18"/>
  <line x1="256" y1="0" x2="256" y2="512" stroke="#00ff88" stroke-width="1" opacity="0.18"/>
  <line x1="342" y1="0" x2="342" y2="512" stroke="#00ff88" stroke-width="1" opacity="0.18"/>
  <!-- widget outlines -->
  <rect x="80" y="120" width="152" height="100" rx="8" fill="none" stroke="#00ff88" stroke-width="2.5"/>
  <rect x="80" y="240" width="70" height="152" rx="8" fill="none" stroke="#aa88ff" stroke-width="2.5"/>
  <rect x="168" y="240" width="64" height="152" rx="8" fill="none" stroke="#aa88ff" stroke-width="2.5"/>
  <rect x="252" y="120" width="180" height="272" rx="8" fill="none" stroke="#ff0088" stroke-width="2.5"/>
  <!-- content bars green widget -->
  <rect x="92" y="132" width="60" height="16" rx="3" fill="#00ff88" opacity="0.85"/>
  <rect x="92" y="156" width="100" height="16" rx="3" fill="#00ff88" opacity="0.45"/>
  <rect x="92" y="178" width="80" height="16" rx="3" fill="#00ff88" opacity="0.25"/>
  <!-- content bars purple widgets -->
  <rect x="92" y="252" width="46" height="16" rx="3" fill="#aa88ff" opacity="0.85"/>
  <rect x="92" y="276" width="46" height="16" rx="3" fill="#aa88ff" opacity="0.45"/>
  <rect x="92" y="300" width="46" height="16" rx="3" fill="#aa88ff" opacity="0.25"/>
  <rect x="92" y="324" width="46" height="16" rx="3" fill="#aa88ff" opacity="0.15"/>
  <rect x="180" y="252" width="40" height="16" rx="3" fill="#aa88ff" opacity="0.85"/>
  <rect x="180" y="276" width="40" height="16" rx="3" fill="#aa88ff" opacity="0.45"/>
  <rect x="180" y="300" width="40" height="16" rx="3" fill="#aa88ff" opacity="0.25"/>
  <!-- content bars pink widget -->
  <rect x="264" y="132" width="80" height="16" rx="3" fill="#ff0088" opacity="0.85"/>
  <rect x="264" y="156" width="140" height="16" rx="3" fill="#ff0088" opacity="0.45"/>
  <rect x="264" y="180" width="110" height="16" rx="3" fill="#ff0088" opacity="0.25"/>
  <!-- cyan bars -->
  <rect x="264" y="240" width="55" height="8" rx="2" fill="#00ffff" opacity="0.7"/>
  <rect x="264" y="260" width="140" height="8" rx="2" fill="#00ffff" opacity="0.5"/>
  <rect x="264" y="278" width="100" height="8" rx="2" fill="#00ffff" opacity="0.3"/>
  <rect x="264" y="296" width="120" height="8" rx="2" fill="#00ffff" opacity="0.2"/>
  <rect x="264" y="320" width="55" height="8" rx="2" fill="#00ffff" opacity="0.7"/>
  <rect x="264" y="338" width="140" height="8" rx="2" fill="#00ffff" opacity="0.4"/>
  <rect x="264" y="356" width="90" height="8" rx="2" fill="#00ffff" opacity="0.2"/>
  <!-- corner dots -->
  <circle cx="80" cy="120" r="5" fill="#00ff88"/>
  <circle cx="232" cy="120" r="5" fill="#00ff88"/>
  <circle cx="80" cy="220" r="5" fill="#00ff88"/>
  <circle cx="232" cy="220" r="5" fill="#00ff88"/>
  <circle cx="252" cy="120" r="5" fill="#ff0088"/>
  <circle cx="432" cy="120" r="5" fill="#ff0088"/>
  <circle cx="252" cy="392" r="5" fill="#ff0088"/>
  <circle cx="432" cy="392" r="5" fill="#ff0088"/>
</svg>
